<?xml version="1.0" encoding="utf-8"?>
<!-- Generator: Adobe Illustrator 24.1.2, SVG Export Plug-In . SVG Version: 6.00 Build 0)  -->
<svg version="1.1" id="Layer_1" xmlns="http://www.w3.org/2000/svg" xmlns:xlink="http://www.w3.org/1999/xlink" x="0px" y="0px"
	 viewBox="0 0 588.4 568.9" style="enable-background:new 0 0 588.4 568.9;" xml:space="preserve">
<style type="text/css">
	.st0{fill:none;stroke:#000000;stroke-miterlimit:10;}
</style>
<path class="st0" d="M10.5,177l20.7,1.5c21.4-24.2,29.9-96,156.2-81.9C182.8,404,48,436.4,56.4,499.4c3.1,35.7,31.4,57.7,62,59
	c96.7-3.3,92.4-133.8,122.5-462.5h124.8C359.2,211.8,341,327.6,339,441.2c1.5,75.6,47.5,115.9,108,116.4
	c99.5,3.3,130.9-112.8,130.9-162.3h-21.4c-2,40.8-21.7,70.2-63.6,72c-114.1,1.5-51.3-200.6-50.5-369.9l135.5,0.8l-0.8-86.5
	C13.8,8.9,85.3-2.1,10.5,177z"/>
</svg>
